<svg id="Capa_1" enable-background="new 0 0 512 512" height="512" viewBox="0 0 512 512" width="512" xmlns="http://www.w3.org/2000/svg"><g><path d="m485.998 194.49c-6.37-1.3-12.97-1.99-19.75-1.99-21.58 0-41.48 6.97-57.41 18.72 0 0-61.84-18.22-92.84-15.56s-40 19.34-73 14.77-38-25.43-70.2-7.82c-30.87 16.88-71.6 1.39-74.9.09-.03-.01-.06-.02-.09-.04-.03-.01-.05-.02-.07-.03s-.03-.02-.05-.02c-12.99-6.47-27.71-10.11-43.32-10.11-9.88 0-19.41 1.46-28.37 4.17 33.77-138.96 179.689-84.18 229.829-83.29 67.141 1.19 199.051-56.26 230.171 81.11z" fill="#ff5a58"/><path d="m444.868 373.14c-13.44-.37-32.69 1.12-54.87 8.86-17.55 6.12-26.33-22.25-50.33-13.26s-39.67 27.66-70.67 13.16-33.67 3.1-58.67 9.1-38.61-8.65-46-16.67c-21.39-23.22-46.52-18.02-60.33-12.38 27.07-16.11 45.12-44.99 45.12-77.95 0-35.37-20.79-66.07-51.22-81.3 3.3 1.3 44.03 16.79 74.9-.09 32.2-17.61 37.2 3.25 70.2 7.82s42-12.11 73-14.77 92.84 15.56 92.84 15.56c-22.69 16.71-37.33 43.09-37.33 72.78 0 43.42 31.33 79.79 73.36 89.14z" fill="#ffe8bb"/><path d="m464.998 375.48c-39.82 75.28-72.498 126.52-163.118 126.52-12.382 0-23.984-8.649-41.382-8.5-19.175.165-25.5 8.5-41.471 8.5-79.014 0-137.032-59.484-172.539-126.82 2.6.21 5.23.32 7.88.32 13.99 0 27.27-2.93 39.22-8.19 0 0 0 0 .01-.01.01 0 .02-.01.03-.02 3.58-1.55 7.04-3.34 10.36-5.32l.01-.01c13.81-5.64 38.94-10.84 60.33 12.38 7.39 8.02 21 22.67 46 16.67s27.67-23.6 58.67-9.1 46.67-4.17 70.67-13.16 32.78 19.38 50.33 13.26c22.18-7.74 41.43-9.23 54.87-8.86h.02c6.47 1.45 13.2 2.25 20.11 2.34z" fill="#ff5a58"/><path d="m243.414 114.176s-4.645-75.176 27.97-104.176h50.115s-41.5 34.5-47.67 104.38z" fill="#ddb9b6"/><g><path d="m495.747 192.28c-3.35-14.851-8.04-28.211-13.92-39.721-5.65-11.04-12.54-20.66-20.5-28.6-1.89-1.88-4.4-2.92-7.07-2.92s-5.19 1.04-7.08 2.93c-1.88 1.89-2.92 4.41-2.92 7.08s1.05 5.18 2.94 7.07c11.1 11.09 19.37 25.67 25.29 44.56-2.06-.12-4.14-.18-6.19-.18h-.06c-21.29 0-41.78 6.16-59.25 17.8-6.04-1.67-15.59-4.2-26.85-6.75-24.28-5.46-43.06-8.13-57.41-8.16-2.77 0-5.26.101-7.6.311-14.6 1.229-25.32 5.5-33.94 8.939 0 0-16.52 6.54-27.32 6.58-3.01 0-6.12-.229-9.5-.7-10.56-1.479-25.23-8.21-25.23-8.21-3.22-1.49-6.55-3.02-10.27-4.279-4.71-1.601-9.18-2.37-13.65-2.37h-.09c-8.23 0-17.1 2.67-27.13 8.18-7.98 4.37-17.72 6.59-28.94 6.59h-.26c-19.05 0-36.24-6.64-36.96-6.92-7.2-3.56-14.83-6.3-22.69-8.15-8.06-1.899-16.4-2.859-24.77-2.859h-.03c-4.69 0-9.41.31-14.04.91 8.65-24.851 21.99-42.721 40.78-54.62 17.95-11.3 40.71-16.8 69.58-16.8h.14c20.19 0 40.809 2.75 58.309 5.43 3.68.56 36.973 5.979 48.82 5.979 14.79 0 52.42-5.319 54.23-5.569 19.34-2.721 39.83-5.38 59.15-5.38h.19c5.51 0 9.99-4.48 10-9.99 0-2.67-1.04-5.18-2.93-7.07-1.88-1.89-4.39-2.93-7.06-2.93-.05-.01-.1-.01-.15-.01-20.55.01-41.04 2.64-61.98 5.569 0 0-17.053 2.413-23.777 3.246 9.383-55.241 41.953-83.299 42.28-83.576 3.239-2.692 4.444-7.127 3.012-11.088-1.43-3.962-5.191-6.602-9.403-6.602h-50.11c-2.449 0-4.813.899-6.645 2.526-27.001 24.006-31.187 73.919-31.527 98.4-3.888-.582-18.079-2.806-21.079-3.277-19.2-2.93-39.92-5.649-61.36-5.649-32.75.01-59.02 6.51-80.32 19.859-12.78 7.971-23.77 18.66-32.67 31.771-9.57 14.1-16.81 31.15-21.51 50.68-.84 3.471.25 7.16 2.85 9.62 1.86 1.76 4.31 2.74 6.89 2.74.97 0 1.94-.15 2.88-.43 8.2-2.48 16.77-3.74 25.47-3.74 13.71 0 26.79 3.05 38.85 9.05.113.064.255.13.409.199 28.065 14.138 45.491 41.8 45.491 72.251 0 28.436-15.041 54.363-40.234 69.356-.032.019-9.558 4.894-9.72 4.975-10.955 4.758-22.659 7.169-34.795 7.169-2.34 0-4.719-.097-7.071-.287-3.634-.295-7.146 1.414-9.155 4.459-2.01 3.046-2.201 6.944-.499 10.172 26.026 49.356 84.198 132.156 181.385 132.156 9.383 0 16.169-2.396 22.156-4.509 5.958-2.104 11.103-3.92 19.4-3.991 7.849-.066 14.328 2.046 21.178 4.285 6.342 2.072 12.899 4.215 20.118 4.215 44.951 0 79.056-11.956 107.331-37.626 26.277-23.857 45.564-58.181 64.626-94.218 1.629-3.079 1.538-6.784-.24-9.779-1.778-2.996-4.986-4.851-8.47-4.896-6.117-.08-12.191-.786-18.054-2.099-.02-.004-.041-.006-.062-.011-38.569-8.593-65.504-41.228-65.504-79.372 0-25.546 12.101-49.118 33.202-64.685.022-.016.045-.029.067-.045 14.87-10.97 32.67-16.77 51.47-16.77 4.858 0 9.73.398 14.512 1.191 1.084.18 4.577.8 5.247.8 2.71 0 5.24-1.07 7.14-3 2.382-2.44 3.362-5.881 2.602-9.21zm-220.313-172.28h23.487c-12.431 16.308-28.348 43.94-33.862 83.203-2.409.124-10.874.127-11.85.074.119-19.13 2.658-62.546 22.225-83.277zm26.446 472c-4.034 0-8.608-1.495-13.906-3.226-7.207-2.354-16.146-5.276-27.039-5.276-.174 0-.349.001-.523.002-11.635.101-19.206 2.773-25.887 5.132-5.331 1.882-9.541 3.368-15.498 3.368-77.917 0-128.682-61.488-155.529-106.877 11.826-.982 23.266-3.883 34.119-8.66.143-.062 7.422-3.523 10.837-5.526 13.258-5.238 32.206-7.538 48.52 10.17 7.447 8.083 24.887 27.006 55.687 19.617 9.729-2.335 16.577-6.196 22.079-9.299 9.657-5.446 14.065-7.93 30.021-.467 27.605 12.914 46.128 3.222 62.468-5.329 5.126-2.683 10.426-5.456 15.947-7.524 7.661-2.869 12.164-.041 20.108 5.639 7.207 5.153 17.078 12.212 30.009 7.698 20.794-7.256 38.743-8.559 50.398-8.326 1.768.378 3.551.712 5.344 1-36.611 67.448-68.125 107.884-147.155 107.884zm82.867-144.248c6.171 7.398 13.389 13.876 21.352 19.293-6.151 1.367-12.639 3.155-19.394 5.513-2.734.953-5.092-.297-11.79-5.084-8.266-5.909-20.756-14.841-38.755-8.098-6.68 2.502-12.539 5.567-18.204 8.532-15.145 7.924-26.087 13.648-44.722 4.935-25.286-11.828-36.995-5.226-48.319 1.161-4.874 2.748-9.913 5.59-16.921 7.272-19.38 4.649-29.57-6.405-36.311-13.722-10.149-11.019-22.446-17.647-35.825-19.687 14.895-17.766 23.26-40.097 23.26-63.868 0-23.652-8.365-45.927-23.06-63.62.977.028 1.958.047 2.95.049 14.61-.01 27.59-3.05 38.59-9.05 7.15-3.89 12.73-5.71 17.56-5.72 2.37 0 4.56.399 7.32 1.319 2.47.82 28.43 11.88 39.15 13.351 4.22.59 8.34.88 12.24.88l.2.01c14.51 0 34.44-7.97 34.44-7.97 8.91-3.54 16.6-6.601 28.34-7.63 1.74-.15 6.08-.23 6.08-.23 16.68 0 40.24 4.811 52.8 7.67 4.582 1.037 8.88 2.075 12.656 3.022-17.256 18.468-26.876 42.384-26.876 67.918 0 23.147 8.254 45.787 23.239 63.754z"/><path d="m220.278 242.939c-.97-4.6-5.08-7.939-9.77-7.939-.69 0-1.39.069-2.07.22-2.62.55-4.86 2.08-6.32 4.32-1.46 2.239-1.95 4.91-1.4 7.52v.01l.01.07c.11.55 2.77 13.83 2.77 33.41 0 11.83-.96 23.53-2.86 34.79-.92 5.43 2.76 10.6 8.2 11.52.55.091 1.12.141 1.67.141h.01c4.88 0 9.02-3.5 9.84-8.34 2.08-12.351 3.14-25.17 3.14-38.11 0-21.29-2.88-35.98-3.21-37.58z"/><path d="m316.198 245.17c-1.45-.771-3.07-1.17-4.69-1.17-3.227 0-6.205 1.528-8.07 4.079-.279.382-1.318 2.336-1.53 2.779-2.212 4.641-3.814 9.277-4.8 12.462-3.03 9.851-4.58 19.921-4.61 29.931 0 9.71 1.52 19.109 4.53 27.97 1.38 4.06 5.19 6.78 9.47 6.78 1.09 0 2.18-.181 3.22-.53 5.22-1.78 8.02-7.47 6.25-12.69-2.3-6.779-3.47-14.02-3.47-21.529-.01-10.26 2.18-19.23 4.02-24.95 1.04-3.25 3.82-9.62 3.82-9.63 0 0 0 0 0-.01 2.57-4.852.71-10.902-4.14-13.492z"/><circle cx="415.948" cy="108.382" r="10"/></g></g></svg>