<svg height="512" viewBox="0 0 512 512" width="512" xmlns="http://www.w3.org/2000/svg"><g id="Flat"><path d="m488 108a83.98979 83.98979 0 0 1 -84 84h-24a83.7198 83.7198 0 0 1 -35.87-8.02l-48.13 8.02 13.02-39.06006a84.00455 84.00455 0 0 1 70.98-128.93994h24a84.00236 84.00236 0 0 1 84 84z" fill="#eedc9a"/><path d="m392 144a8.00008 8.00008 0 0 1 -8-8 46.32292 46.32292 0 0 1 13.65625-32.96973l8.687-8.6875a20.2842 20.2842 0 0 0 -28.62012-28.752l-3.72607 3.9209c-.04687.04883-.09424.09766-.14209.14551a6.15817 6.15817 0 0 0 -.76709 7.75 6.14164 6.14164 0 0 0 9.45361.93554l3.80176-3.80175a8.00018 8.00018 0 0 1 11.31348 11.31445l-3.80173 3.80181a22.14229 22.14229 0 0 1 -31.39307-31.23438l3.73926-3.93457c.04688-.04883.09424-.09766.14209-.14551a36.28446 36.28446 0 0 1 51.31348 51.31446l-8.68653 8.68652a30.427 30.427 0 0 0 -8.97023 21.65625 8.00008 8.00008 0 0 1 -8 8z" fill="#e44b4d"/><circle cx="392" cy="160" fill="#e44b4d" r="8"/><path d="m104 232h29.38915a0 0 0 0 1 0 0v48a0 0 0 0 1 0 0h-29.38915a24 24 0 0 1 -24-24 24 24 0 0 1 24-24z" fill="#f2c194"/><path d="m258.61085 232h29.38915a0 0 0 0 1 0 0v48a0 0 0 0 1 0 0h-29.38915a24 24 0 0 1 -24-24 24 24 0 0 1 24-24z" fill="#f2c194" transform="matrix(-1 0 0 -1 522.611 512)"/><path d="m344 493.8501v2.1499h-320v-2.1499a176.61109 176.61109 0 0 1 1.33008-21.69019 178.73593 178.73593 0 0 1 3.97-21.35986 109.28564 109.28564 0 0 1 83.26-80.39014 107.35056 107.35056 0 0 1 11.95992-1.86991q5.385-.54016 10.83-.54h.65a24.021 24.021 0 0 0 24-23.99v-8.01h48v8.01a24.021 24.021 0 0 0 24 23.99h.65q5.445 0 10.83.54a107.35056 107.35056 0 0 1 11.96 1.86987q3.705.78 7.3501 1.83008a109.31626 109.31626 0 0 1 75.9099 78.5601 177.50936 177.50936 0 0 1 5.3 43.05005z" fill="#f4ceaf"/><path d="m344 493.8501v2.1499h-320v-2.1499a176.61109 176.61109 0 0 1 1.33008-21.69019 178.73593 178.73593 0 0 1 3.97-21.35986 109.28564 109.28564 0 0 1 83.26-80.39014 107.35056 107.35056 0 0 1 11.95992-1.86991 70.82527 70.82527 0 0 0 7.25 8.96 71.91926 71.91926 0 0 0 111.71-8.96c2.21.22 4.4.51 6.59009.85986q2.6999.43506 5.36987 1.01 3.705.78 7.3501 1.83008a109.31626 109.31626 0 0 1 75.90994 78.56011 177.50936 177.50936 0 0 1 5.3 43.05005z" fill="#c4d4e0"/><path d="m243.67993 389.76-31.22 41.63013a31.51005 31.51005 0 0 1 2.71 7.66992 32.071 32.071 0 0 1 -5.13989 25.2l-22.43995 31.73995h-138.32009l73.52-105.03 8.98-13.47a71.91926 71.91926 0 0 0 111.71-8.96c2.21.22 4.4.51 6.59009.85986a31.85714 31.85714 0 0 1 -6.39016 20.36014z" fill="#a6b2bc"/><path d="m243.48 368.54a71.91926 71.91926 0 0 1 -111.71 8.96 70.82527 70.82527 0 0 1 -7.25-8.96c2.02-.2002 4.04-.3501 6.07007-.43018 1.57985-.07982 3.16993-.10982 4.75993-.10982h.65a23.86083 23.86083 0 0 0 14.92993-5.22 47.97277 47.97277 0 0 0 66.14014 0 23.86083 23.86083 0 0 0 14.92993 5.22h.65q5.445 0 10.83.54z" fill="#a6b2bc"/><path d="m344 493.8501v2.1499h-112a210.54974 210.54974 0 0 1 5.4-47.39014l7.11-30.80981 10.92993-47.39014q3.705.78 7.3501 1.83008a109.31626 109.31626 0 0 1 75.90997 78.56006 177.50936 177.50936 0 0 1 5.3 43.05005z" fill="#396795"/><path d="m136 496h-112v-2.1499a176.61109 176.61109 0 0 1 1.33008-21.69019 178.73593 178.73593 0 0 1 3.97-21.35986 109.28026 109.28026 0 0 1 83.26-80.39014l6.09985 26.46021 4.83007 20.92993 7.11 30.80981a210.54974 210.54974 0 0 1 5.4 47.39014z" fill="#396795"/><path d="m256 224v48a72 72 0 0 1 -144 0v-48l96-40z" fill="#f4ceaf"/><path d="m222.67993 332.74a72.04138 72.04138 0 0 1 -78.08984-.48 30.65656 30.65656 0 0 1 26.88991-1.78 31.98679 31.98679 0 0 1 44.43994-3.37012z" fill="#f2c194"/><path d="m152 256h-16a8 8 0 0 1 0-16h16a8 8 0 0 1 0 16z" fill="#ad7d4d"/><path d="m232 256h-16a8 8 0 0 1 0-16h16a8 8 0 0 1 0 16z" fill="#ad7d4d"/><path d="m191.999 288.002a8.00336 8.00336 0 0 1 -7.58838-5.47168l-8-24a8 8 0 1 1 15.17872-5.06054l8 24a8.00445 8.00445 0 0 1 -7.59034 10.53222z" fill="#f2c194"/><circle cx="144" cy="264" fill="#966342" r="8"/><circle cx="224" cy="264" fill="#966342" r="8"/><path d="m272 203.31006v28.68994h-18.75a31.99538 31.99538 0 0 1 -22.62-9.37012l-22.63-22.62988a109.25262 109.25262 0 0 1 -77.25 32h-9.78a40.97056 40.97056 0 0 1 -40.97-40.97v-7.03a9.93255 9.93255 0 0 1 10.01-9.96 9.73789 9.73789 0 0 1 6.96 2.93 9.9464 9.9464 0 0 0 14.06006 0l21.16994-21.16995a67.598 67.598 0 0 1 95.6001 0l5.12988 5.12988a10.00682 10.00682 0 0 1 0 14.14014l-.92998.92993h12.68994a27.31371 27.31371 0 0 1 27.31006 27.31006z" fill="#ad7d4d"/><path d="m192 320h-16a8 8 0 0 1 0-16h16a8 8 0 0 1 0 16z" fill="#f2c194"/><path d="m243.48 368.54a71.91926 71.91926 0 0 1 -111.71 8.96l1.77-2.6499-1.13013-2.26026a30.70464 30.70464 0 0 1 -1.81982-4.48c1.57987-.07984 3.16995-.10984 4.75995-.10984h.65a23.86083 23.86083 0 0 0 14.92993-5.22 47.97277 47.97277 0 0 0 66.14014 0 23.86083 23.86083 0 0 0 14.92993 5.22h.65q5.445 0 10.83.54z" fill="#808393"/><g fill="#26507a"><path d="m280 378.79v53.21l-35.49-14.19995 10.92993-47.39014q3.705.78 7.3501 1.83008a108.84177 108.84177 0 0 1 17.20997 6.55001z"/><path d="m123.49 417.80005-27.06007 10.82983-8.42993 3.37012v-53.21a108.943 108.943 0 0 1 24.56006-8.38013l6.09985 26.46021z"/><path d="m136 496h-86.73l69.38989-99.12988 4.83011 20.92993 7.11 30.80981a210.54974 210.54974 0 0 1 5.4 47.39014z"/></g><path d="m118.66 396.87 4.83 20.93-27.06 10.83z" fill="#214569"/><path d="m145.92271 354.23187a14.6787 14.6787 0 0 0 .79641 11.20632l5.28088 10.56181-16 24 56 32 38.87969-51.83959a16 16 0 0 0 -2.55705-21.89154l-22.6438-18.86987a16 16 0 0 0 -23.55575 3.41634l-6.12309 9.18466-8.00959-5.33973a14.6787 14.6787 0 0 0 -22.0677 7.5716z" fill="#f4ceaf"/><path d="m168 496 28.96054-40.96718a16 16 0 0 0 -5.12687-23.12787l-55.83367-31.90495-67.2 96z" fill="#396795"/><path d="m272 203.31006v28.68994h-18.75a31.99538 31.99538 0 0 1 -22.62-9.37012l-22.63-22.62988 24-24h12.68994a27.31371 27.31371 0 0 1 27.31006 27.31006z" fill="#966342"/></g></svg>
