<svg id="Capa_1" enable-background="new 0 0 512 512" height="512" viewBox="0 0 512 512" width="512" xmlns="http://www.w3.org/2000/svg"><g><path d="m2.818 234.984c-1.804 1.805-2.818 4.252-2.818 6.805v98.019c0 1.817 1.473 3.289 3.289 3.289h53.425l-16.398-145.61z" fill="#9bd069"/><path d="m40.317 316.956h-15.308c-4.268 0-7.726-3.459-7.726-7.726s3.459-7.726 7.726-7.726h15.308c4.268 0 7.726 3.459 7.726 7.726s-3.458 7.726-7.726 7.726zm7.726-34.381c0-4.267-3.459-7.726-7.726-7.726h-15.308c-4.268 0-7.726 3.459-7.726 7.726s3.459 7.726 7.726 7.726h15.308c4.268 0 7.726-3.459 7.726-7.726zm0-26.655c0-4.267-3.459-7.726-7.726-7.726h-15.308c-4.268 0-7.726 3.459-7.726 7.726s3.459 7.726 7.726 7.726h15.308c4.268 0 7.726-3.459 7.726-7.726z" fill="#aad880"/><path d="m278.477 127.905h42.999v52.752h-42.999z" fill="#c67d66"/><path d="m252.437 135.808h-56.684v41.874c0 .971.627 1.757 1.4 1.757h55.283v-43.631z" fill="#4a80aa"/><path d="m487.572 255.973-30.968-13.403c-4.221-1.827-7.448-5.388-8.852-9.768l-14.013-43.722c-4.127-12.876-16.099-21.611-29.62-21.611h-82.644l-15.335 193.237h159.475v-23.243c0-2.39 1.938-4.328 4.328-4.328h36.379v-48.618c0-12.402-7.368-23.619-18.75-28.544z" fill="#f1f1f4"/><path d="m487.572 255.973-30.914-13.379c5.328 5.662 8.456 13.24 8.456 21.32v37.883c0 18.954-13.767 34.693-31.847 37.763 3.649 6.202-8.887 13.43-8.887 21.146h41.234l40.707-27.571v-48.618c0-12.402-7.367-23.618-18.749-28.544z" fill="#dfdde2"/><path d="m310.066 340.102 11.409 20.604h44.875c0-7.493-8.886-14.524-5.43-20.604z" fill="#dfdde2"/><path d="m507.672 333.135h-37.729c-2.39 0-4.328 1.938-4.328 4.328v23.242c0 2.39 1.938 4.328 4.328 4.328h37.729c2.39 0 4.328-1.938 4.328-4.328v-23.242c0-2.39-1.938-4.328-4.328-4.328z" fill="#c6c1c8"/><path d="m506.322 289.725h-21.771c-8.068 0-14.608 6.54-14.608 14.608v14.194c0 8.068 6.54 14.608 14.608 14.608h21.771z" fill="#fbf4c6"/><circle cx="397.25" cy="360.706" fill="#665e66" r="41.759"/><circle cx="397.25" cy="360.706" fill="#c6c1c8" r="13.502"/><path d="m408.941 197.026c-.672-2.096-2.621-3.518-4.822-3.518h-54.753c-1.022 0-1.851.829-1.851 1.851v43.54c0 1.022.829 1.851 1.851 1.851h71.051c1.254 0 2.145-1.221 1.762-2.415z" fill="#665e66"/><path d="m331.996 114.717h-64.039c-1.381 0-2.5 1.119-2.5 2.5v21.376c0 1.381 1.119 2.5 2.5 2.5h64.039c1.381 0 2.5-1.119 2.5-2.5v-21.376c-.001-1.381-1.12-2.5-2.5-2.5z" fill="#d09080"/><path d="m262.957 114.717h-53.519v26.376h53.519c1.381 0 2.5-1.119 2.5-2.5v-21.376c0-1.381-1.12-2.5-2.5-2.5z" fill="#5c90b9"/><path d="m210.5 167.468c-.587 0-1.062-.476-1.062-1.062v-55.809c0-.587-.476-1.062-1.062-1.062h-88.622c-2.552 0-4.999 1.014-6.804 2.818l-70.776 70.777c-1.189 1.189-1.857 2.802-1.857 4.484v171.848c0 .687.557 1.244 1.244 1.244h25.331c0-23.063 18.696-41.759 41.759-41.759s41.759 18.696 41.759 41.759c0-23.063 18.696-41.759 41.759-41.759s41.759 18.696 41.759 41.759h25.755v-17.255c0-2.387 1.935-4.321 4.321-4.321h53.149c2.387 0 4.321 1.935 4.321 4.321v-175.983z" fill="#bcdf95"/><g fill="#aad880"><path d="m40.316 322.847v36.615c0 .687.557 1.244 1.244 1.244h50.205c0-16.757-15.004-31.208-.761-37.858h-50.688z"/><path d="m280.268 167.468v112.972c0 23.421-18.986 42.407-42.407 42.407h-28.045c14.243 6.651 10.37 21.102 10.37 37.858h39.497s61.792-19.641 61.792-17.255v-175.982z"/><path d="m115.684 322.847c20.513 6.65 34.726 21.102 34.726 37.858 0-16.757 14.213-31.208 34.726-37.858z"/></g><g><path d="m368.757 274.516h-21.24c-4.268 0-7.726-3.459-7.726-7.726s3.459-7.726 7.726-7.726h21.24c4.268 0 7.726 3.459 7.726 7.726 0 4.266-3.459 7.726-7.726 7.726z" fill="#c6c1c8"/></g><g><path d="m124.441 284.165c-1.978 0-3.955-.754-5.464-2.263-2.518-2.518-2.935-6.343-1.249-9.293h-32.682c-3.726 0-7.199-2.005-9.062-5.233-1.864-3.228-1.863-7.238 0-10.466l12.969-22.462c2.132-3.695 6.856-4.962 10.554-2.828 3.695 2.133 4.962 6.859 2.828 10.554l-8.65 14.982h42.312c3.125 0 5.943 1.882 7.138 4.77 1.196 2.887.535 6.211-1.675 8.42l-11.556 11.556c-1.509 1.508-3.486 2.263-5.463 2.263z" fill="#f1f1f4"/></g><g><path d="m186.775 272.635c-.004 0-.007 0-.01 0l-25.939-.026c-4.267-.004-7.722-3.467-7.718-7.734.004-4.265 3.463-7.719 7.726-7.719h.008l17.299.017-21.119-36.663c-1.559-2.708-1.335-6.089.57-8.566 1.904-2.477 5.115-3.561 8.132-2.752l15.782 4.245c4.121 1.109 6.562 5.348 5.454 9.468-.925 3.44-4.031 5.709-7.429 5.721l16.312 28.318c1.86 3.23 1.856 7.239-.01 10.465-1.865 3.225-5.336 5.226-9.058 5.226z" fill="#f1f1f4"/></g><g><path d="m108.042 224.485c-.337.001-.677-.022-1.018-.067-3.098-.411-5.643-2.648-6.449-5.667l-4.214-15.79c-1.101-4.123 1.349-8.357 5.473-9.458 3.437-.917 6.959.637 8.669 3.573l16.369-28.287c1.863-3.222 5.334-5.224 9.057-5.224h.009c3.727.004 7.199 2.012 9.059 5.242l12.947 22.475c2.13 3.698.859 8.422-2.839 10.552-3.693 2.129-8.421.859-10.551-2.839l-8.635-14.99-21.192 36.622c-1.392 2.409-3.954 3.858-6.685 3.858z" fill="#f1f1f4"/></g><path d="m295.72 159.742c-4.268 0-7.726 3.459-7.726 7.726v18.313h-27.831v-18.313c0-4.267-3.459-7.726-7.726-7.726-4.268 0-7.726 3.459-7.726 7.726v145.907c0 4.267 3.459 7.726 7.726 7.726 4.268 0 7.726-3.459 7.726-7.726v-7.981h27.831v7.981c0 4.267 3.459 7.726 7.726 7.726 4.268 0 7.726-3.459 7.726-7.726v-145.907c.001-4.267-3.458-7.726-7.726-7.726zm-35.557 67.533h27.831v10.587h-27.831zm0 26.039h27.831v10.588h-27.831zm27.831-52.08v10.588h-27.831v-10.588zm-27.831 88.708v-10.587h27.831v10.587z" fill="#f1f1f4"/><path d="m250.633 320.89c.579.138 1.182.212 1.803.212 2.923 0 5.466-1.622 6.778-4.016-2.686 1.569-5.56 2.851-8.581 3.804z" fill="#dfdde2"/><path d="m295.72 159.742c-4.268 0-7.726 3.459-7.726 7.726v18.313h-7.726v15.453h7.726v10.588h-7.726v15.453h7.726v10.587h-7.726v15.453h7.726v10.588h-7.726v15.453h7.726v10.587h-8.795c-1.297 5.668-3.73 10.903-7.047 15.453h15.841v7.981c0 4.267 3.459 7.726 7.726 7.726 4.268 0 7.726-3.459 7.726-7.726v-145.909c.002-4.267-3.457-7.726-7.725-7.726z" fill="#dfdde2"/><path d="m317.154 382.282h-53.15c-2.387 0-4.321-1.935-4.321-4.321v-34.51c0-2.387 1.935-4.321 4.321-4.321h53.15c2.387 0 4.321 1.935 4.321 4.321v34.51c0 2.386-1.934 4.321-4.321 4.321z" fill="#f1f1f4"/><circle cx="108.651" cy="360.706" fill="#665e66" r="41.759"/><circle cx="108.651" cy="360.706" fill="#c6c1c8" r="13.502"/><circle cx="192.169" cy="360.706" fill="#665e66" r="41.759"/><circle cx="192.169" cy="360.706" fill="#c6c1c8" r="13.502"/></g></svg>