<svg id="Capa_1" enable-background="new 0 0 512 512" height="512" viewBox="0 0 512 512" width="512" xmlns="http://www.w3.org/2000/svg"><g><g clip-rule="evenodd" fill-rule="evenodd"><path d="m150.422 457.744h211.154c3.289 0 6.01 2.693 6.01 6.009v42.265c0 3.288-2.721 5.981-6.01 5.981h-211.154c-3.316 0-6.01-2.693-6.01-5.981v-42.265c0-3.316 2.693-6.009 6.01-6.009z" fill="#dc4655"/><path d="m331.586 457.744h29.99c3.289 0 6.01 2.693 6.01 6.009v42.265c0 3.288-2.721 5.981-6.01 5.981h-29.99c3.289 0 5.982-2.693 5.982-5.981v-42.265c0-3.316-2.693-6.009-5.982-6.009z" fill="#d82e3d"/><path d="m166.467 127.759h179.066c3.287 0 5.98-2.722 5.98-6.01v-39.345l-9.879-21.67 9.879-28.192v-26.532c0-3.316-2.693-6.01-5.98-6.01h-179.066c-3.289 0-6.01 2.693-6.01 6.01v26.533l7.89 27.043-7.89 22.819v39.345c0 3.288 2.721 6.009 6.01 6.009z" fill="#dc4655"/><path d="m315.514 127.759h30.02c3.287 0 5.98-2.722 5.98-6.01v-39.345l-9.879-24.931 9.879-24.931v-26.532c0-3.316-2.693-6.01-5.98-6.01h-30.02c3.316 0 6.01 2.693 6.01 6.01v115.74c-.001 3.288-2.694 6.009-6.01 6.009z" fill="#d82e3d"/><path d="m144.412 114.947h223.174c21.998 0 39.998 18 39.998 39.997v58.083l-9.609 87.903 9.609 81.355v58.082c0 22.026-18 40.026-39.998 40.026h-223.174c-21.996 0-39.996-18-39.996-40.026v-58.082l8.391-84.955-8.391-84.303v-58.083c0-21.997 18-39.997 39.996-39.997z" fill="#e6646e"/><path d="m337.568 114.947h30.018c21.998 0 39.998 18 39.998 39.997v285.423c0 22.026-18 40.026-39.998 40.026h-30.018c21.996 0 39.996-18 39.996-40.026v-285.423c.001-21.997-17.999-39.997-39.996-39.997z" fill="#dc4655"/><path d="m160.457 32.542h18.029c9.24 0 16.809 7.54 16.809 16.81v16.243c0 9.241-7.568 16.81-16.809 16.81h-18.029z" fill="#cbe2ff"/><path d="m351.514 32.542h-18c-9.24 0-16.809 7.54-16.809 16.81v16.243c0 9.241 7.568 16.81 16.809 16.81h18z" fill="#bed8fb"/><path d="m238.609 32.542h34.752v82.404h-34.752z" fill="#cbe2ff"/></g><path d="m225.484 40.026c-4.139 0-7.512-3.345-7.512-7.483 0-4.167 3.373-7.512 7.512-7.512h61.031c4.139 0 7.482 3.345 7.482 7.512 0 4.139-3.344 7.483-7.482 7.483z" fill="#294b64"/><path clip-rule="evenodd" d="m105.125 447.766c-.455-2.381-.709-4.875-.709-7.398v-25.455h141.734c9.041 0 16.439 7.398 16.439 16.413 0 9.042-7.398 16.441-16.439 16.441h-141.025zm301.752-300.221c.453 2.41.707 4.876.707 7.399v25.455h-141.734c-9.041 0-16.439-7.37-16.439-16.413s7.398-16.441 16.439-16.441z" fill="#dc4655" fill-rule="evenodd"/><path clip-rule="evenodd" d="m104.416 213.026h303.168v169.258h-303.168z" fill="#ffe17d" fill-rule="evenodd"/><path clip-rule="evenodd" d="m377.565 213.026h30.02v169.258h-30.02z" fill="#ffc369" fill-rule="evenodd"/><path d="m208.93 282.306c0 4.139-3.346 7.512-7.484 7.512s-7.512-3.373-7.512-7.512c0-6.463-2.635-12.36-6.916-16.64-4.279-4.28-10.176-6.945-16.668-6.945-6.463 0-12.359 2.665-16.639 6.945-4.281 4.28-6.945 10.177-6.945 16.64v30.699c0 6.492 2.664 12.388 6.945 16.668 4.279 4.252 10.176 6.917 16.639 6.917 6.492 0 12.389-2.636 16.668-6.917 3.232-3.26 5.527-7.427 6.463-12.047h-7.512c-4.139 0-7.482-3.345-7.482-7.484s3.344-7.483 7.482-7.483h14.826c4.393 0 8.135 3.062 8.135 7.483v2.863c0 10.63-4.338 20.268-11.311 27.27-7.002 6.973-16.639 11.31-27.27 11.31-10.602 0-20.268-4.337-27.24-11.31-7.002-7.001-11.34-16.639-11.34-27.27v-30.699c0-10.63 4.338-20.268 11.34-27.242 6.973-7.001 16.639-11.338 27.24-11.338 10.631 0 20.268 4.337 27.27 11.338 6.973 6.974 11.311 16.612 11.311 27.242zm94.111 38.58c0-4.139 3.373-7.512 7.512-7.512s7.512 3.374 7.512 7.512c0 4.309 1.758 8.221 4.621 11.084 2.834 2.863 6.775 4.62 11.084 4.62h15.733c4.308 0 8.248-1.757 11.084-4.62 2.861-2.863 4.619-6.775 4.619-11.084s-1.758-8.249-4.619-11.112c-2.949-2.948-6.918-4.649-11.084-4.649h-15.733c-8.447 0-16.129-3.43-21.685-8.986-5.584-5.556-9.043-13.238-9.043-21.686 0-8.476 3.459-16.158 9.043-21.713 5.557-5.556 13.238-9.014 21.685-9.014h15.733c8.447 0 16.129 3.458 21.685 9.014 5.584 5.556 9.041 13.238 9.041 21.713 0 4.138-3.373 7.484-7.512 7.484s-7.512-3.346-7.512-7.484c0-4.337-1.758-8.249-4.619-11.112-2.836-2.835-6.775-4.621-11.084-4.621h-15.732c-4.309 0-8.25 1.786-11.084 4.621-2.863 2.863-4.621 6.774-4.621 11.112 0 4.309 1.758 8.221 4.621 11.084 2.949 2.948 6.916 4.648 11.084 4.648h15.733c8.447 0 16.129 3.43 21.685 8.986 5.584 5.556 9.041 13.237 9.041 21.713 0 8.447-3.457 16.129-9.041 21.686-5.557 5.584-13.238 9.014-21.685 9.014h-15.733c-8.447 0-16.129-3.43-21.685-9.014-5.585-5.555-9.044-13.237-9.044-21.684zm-70.838 24.917c-.936 4.025-4.961 6.52-8.986 5.584-4.025-.935-6.547-4.96-5.584-8.986 7.229-30.955 14.457-61.909 21.713-92.864.795-3.402 3.799-5.811 7.285-5.811h18.738c3.684 0 6.746 2.664 7.369 6.179 7.228 30.842 14.428 61.654 21.629 92.496.936 4.025-1.559 8.05-5.584 8.986s-8.051-1.559-8.986-5.584l-6.605-28.148h-34.383zm20.381-87.082-10.289 43.909h27.41l-10.289-43.909z" fill="#e6646e"/></g></svg>