<?xml version="1.0" encoding="utf-8"?>
<!-- Generator: Adobe Illustrator 22.1.0, SVG Export Plug-In . SVG Version: 6.00 Build 0)  -->
<svg version="1.1" id="Layer_1" xmlns="http://www.w3.org/2000/svg" xmlns:xlink="http://www.w3.org/1999/xlink" x="0px" y="0px"
	 viewBox="0 0 512 512" style="enable-background:new 0 0 512 512;" xml:space="preserve">
<style type="text/css">
	.st0{fill:#1A1E38;}
	.st1{fill:#2F4054;}
	.st2{fill:#262D43;}
	.st3{fill:#AE7D4D;}
	.st4{fill:#976342;}
	.st5{fill:#EFBF33;}
	.st6{fill:#EFDD9B;}
	.st7{fill:#E98704;}
</style>
<g id="Flat">
	<path class="st0" d="M216,372h104v60H216V372z"/>
	<path class="st1" d="M177,265l-9-9H88l-37.1,37.1C5.5,338.5,37.7,416,101.8,416h52.4c18.1,0.2,35.5-6.5,48.8-18.8
		c27.8-25.8,33.5-72.7,2.1-104.1L177,265z"/>
	<path class="st2" d="M106.3,250.3c-22.1,21.9-34.4,51.8-34.3,82.9V360h16v-26.7c-0.1-26.9,10.6-52.6,29.7-71.6l12-12l-11.3-11.3
		L106.3,250.3z"/>
	<path class="st2" d="M129.7,238.3l-11.3,11.3l12,12c14,13.9,23.6,31.6,27.5,50.9c1.4,6.8,2.1,13.8,2.1,20.7V360h16v-26.8
		c0.1-31.1-12.3-61-34.3-82.9L129.7,238.3z"/>
	<path class="st3" d="M172,232H84c-6.6,0-12,5.4-12,12c0,6.6,5.4,12,12,12h88c6.6,0,12-5.4,12-12C184,237.4,178.6,232,172,232z"/>
	<path class="st1" d="M160,176c-8.8,0-16,7.2-16,16s-7.2,16-16,16s-16-7.2-16-16s-7.2-16-16-16s-16,7.2-16,16v16
		c0,13.3,10.7,24,24,24h48c13.3,0,24-10.7,24-24v-16C176,183.2,168.8,176,160,176z"/>
	<path class="st2" d="M177.1,265.1c-20.3,25-25.1,58.2-12.5,88.6c7.5,18.5,21,33.8,38.4,43.5c27.8-25.8,33.5-72.7,2.1-104.1
		L177.1,265.1z"/>
	<path class="st0" d="M157.9,312.5c1.4,6.8,2.1,13.8,2.1,20.7v6.5c1.1,4.8,2.6,9.4,4.5,13.9c0.9,2.2,1.9,4.3,2.9,6.3h8.6v-26.8
		c0-17-3.6-33.7-10.7-49.2C161.2,293.1,158.7,302.7,157.9,312.5z"/>
	<path class="st1" d="M325.7,245.7L312,232h-80l-37.1,37.1C149.6,314.5,181.7,392,245.8,392h52.4c64.1,0,96.3-77.5,50.9-122.9
		L325.7,245.7z"/>
	<path class="st2" d="M250.3,226.3c-22.1,21.9-34.4,51.8-34.3,82.9V336h16v-26.7c-0.1-26.9,10.6-52.6,29.7-71.6l12-12l-11.3-11.3
		L250.3,226.3z"/>
	<path class="st2" d="M273.7,214.3l-11.3,11.3l12,12c19.1,18.9,29.7,44.7,29.7,71.6V336h16v-26.8c0-31.1-12.3-60.9-34.3-82.9
		L273.7,214.3z"/>
	<path class="st3" d="M316,208h-88c-6.6,0-12,5.4-12,12c0,6.6,5.4,12,12,12h88c6.6,0,12-5.4,12-12C328,213.4,322.6,208,316,208z"/>
	<path class="st1" d="M304,152c-8.8,0-16,7.2-16,16s-7.2,16-16,16s-16-7.2-16-16s-7.2-16-16-16s-16,7.2-16,16v16
		c0,13.3,10.7,24,24,24h48c13.3,0,24-10.7,24-24v-16C320,159.2,312.8,152,304,152z"/>
	<path class="st2" d="M325.7,245.7c-3.7,5.4-5.7,11.7-5.7,18.3v16c0,4.8,0.9,9.6,2.6,14.1c-11.6,9.2-14,26-5.4,38.1l-21.6,21.6
		c-10.7,10.6-18.5,23.8-22.7,38.2h25.3c64.1,0,96.3-77.5,50.9-122.9L325.7,245.7z"/>
	<path class="st0" d="M317.2,332.2l-3.8,3.8h6.6v-26.8c0-4.1-0.2-8.1-0.6-12.2C310.4,306.8,309.5,321.4,317.2,332.2z"/>
	<path class="st1" d="M424,328h-80l-37.1,37.1C261.6,410.4,293.7,488,357.8,488h52.4c64.1,0,96.3-77.6,50.9-122.9L424,328z"/>
	<path class="st2" d="M362.3,322.3c-22.1,21.9-34.4,51.8-34.3,82.9V432h16v-26.7c-0.1-26.9,10.6-52.6,29.7-71.6l12-12l-11.3-11.3
		L362.3,322.3z"/>
	<path class="st2" d="M385.7,310.3l-11.3,11.3l12,12c19.1,18.9,29.7,44.7,29.7,71.6V432h16v-26.7c0.1-31.1-12.3-61-34.3-82.9
		L385.7,310.3z"/>
	<path class="st3" d="M428,304h-88c-6.6,0-12,5.4-12,12c0,6.6,5.4,12,12,12h88c6.6,0,12-5.4,12-12C440,309.4,434.6,304,428,304z"/>
	<path class="st1" d="M416,248c-8.8,0-16,7.2-16,16s-7.2,16-16,16s-16-7.2-16-16s-7.2-16-16-16s-16,7.2-16,16v16
		c0,13.3,10.7,24,24,24h48c13.3,0,24-10.7,24-24v-16C432,255.2,424.8,248,416,248z"/>
	<path class="st3" d="M368,456c0,17.7-14.3,32-32,32H56c-17.7,0-32-14.3-32-32s14.3-32,32-32c0.3,0,0.7,0,1,0
		c-4.4-17.1,5.8-34.6,22.9-39c5.4-1.4,11.1-1.4,16.5,0.1c3.8-26.2,28.1-44.4,54.4-40.7c23.6,3.4,41.1,23.6,41.1,47.5h16v40h56
		c0-17.7,14.3-32,32-32c15,0,28.1,10.5,31.3,25.2c17-4.8,34.7,5.1,39.5,22.1C367.6,450.1,368,453.1,368,456z"/>
	<g>
		<path class="st4" d="M87.8,420l-10.6,12c-5.6-4.9-12.7-7.7-20.2-8c-1.4-5.3-1.4-10.8,0-16C68.4,408.2,79.2,412.5,87.8,420z"/>
		<path class="st4" d="M129.6,392l-13.8,8c-4.2-7.3-11.1-12.6-19.2-14.9c0.8-5.3,2.4-10.5,4.9-15.2
			C113.3,373.4,123.4,381.3,129.6,392z"/>
		<path class="st4" d="M327.3,425.2c-8,2.3-14.8,7.6-19,14.8l-13.8-8c5.7-9.9,14.8-17.4,25.5-21.2
			C323.6,414.9,326.1,419.9,327.3,425.2L327.3,425.2z"/>
	</g>
	<path class="st5" d="M272,368v64c0,13.2-17.9,24-40,24s-40-10.8-40-24v-64H272z"/>
	<ellipse class="st6" cx="192" cy="324" rx="24" ry="36"/>
	<ellipse class="st7" cx="232" cy="368" rx="40" ry="24"/>
	<path class="st2" d="M16,480h480v16H16V480z"/>
</g>
</svg>
