<?xml version="1.0" encoding="utf-8"?>
<!-- Generator: Adobe Illustrator 22.1.0, SVG Export Plug-In . SVG Version: 6.00 Build 0)  -->
<svg version="1.1" id="Layer_1" xmlns="http://www.w3.org/2000/svg" xmlns:xlink="http://www.w3.org/1999/xlink" x="0px" y="0px"
	 viewBox="0 0 512 512" style="enable-background:new 0 0 512 512;" xml:space="preserve">
<style type="text/css">
	.st0{fill:#2F4054;}
	.st1{fill:#EFDD9B;}
	.st2{fill:#EFBF33;}
</style>
<g id="Flat">
	<path class="st0" d="M96,176"/>
	<path class="st0" d="M224,168"/>
	<path class="st0" d="M240,152"/>
	<path class="st1" d="M106.3,157.7l11.3-11.3l-8-8c-10.1-10.1-10.1-26.5,0-36.7c16.4-16.4,16.4-42.9,0-59.3L98.3,53.7
		c10.1,10.1,10.1,26.5,0,36.7c-16.4,16.4-16.4,42.9,0,59.3L106.3,157.7z"/>
	<path class="st2" d="M74.3,29.7l11.3-11.3l16,16L90.3,45.7L74.3,29.7z"/>
	<path class="st1" d="M188,160h12v-16h-12c-11,0-20-9-20-20s9-20,20-20h44V88h-44c-19.9,0-36,16.1-36,36S168.1,160,188,160z"/>
	<path class="st2" d="M248,88h16v16h-16V88z"/>
	<path class="st1" d="M342.3,94.3c-14.1,14.2-14.1,37.1,0,51.3l12,12l11.3-11.3l-12-12c-7.9-7.9-7.9-20.8,0-28.7
		c14.1-14.2,14.1-37.1,0-51.3l-12-12l-11.3,11.3l12,12C350.3,73.6,350.3,86.4,342.3,94.3z"/>
	<path class="st2" d="M306.3,29.7l11.3-11.3l16,16l-11.3,11.3L306.3,29.7z"/>
	<path class="st1" d="M456.4,234.3l-8,8l11.3,11.3l8-8c16.4-16.4,16.4-42.9,0-59.3c-10.1-10.1-10.1-26.5,0-36.7
		c16.4-16.4,16.4-42.9,0-59.3l-11.3,11.3c10.1,10.1,10.1,26.5,0,36.7c-16.4,16.4-16.4,42.9,0,59.3
		C466.5,207.8,466.5,224.2,456.4,234.3z"/>
	<path class="st2" d="M432.3,77.7l11.3-11.3l16,16l-11.3,11.3L432.3,77.7z"/>
</g>
</svg>
